<mxfile host="app.diagrams.net" modified="2024-04-23T12:34:35.117Z" agent="Mozilla/5.0 (Windows NT 10.0; Win64; x64) AppleWebKit/537.36 (KHTML, like Gecko) Chrome/124.0.0.0 Safari/537.36" version="22.1.21" etag="X_F532dtgPpOxT6oIB80" type="github">
  <diagram name="Page-1" id="WUfIOC5bZxF3noxLqEHr">
    <mxGraphModel>
      <root>
        <mxCell id="0" />
        <mxCell id="1" parent="0" />
      </root>
    </mxGraphModel>
  </diagram>
</mxfile>
